<svg height="1465" viewBox="-0.1 1.1 304.9 179.8" width="2500" xmlns="http://www.w3.org/2000/svg"><path d="M86 66l2 9c0 3 1 5 3 8v2l-1 3-7 4-2 1-3-1-4-5-3-6c-8 9-18 14-29 14-9 0-16-3-20-7s-8-12-8-20 3-15 9-20 14-8 25-8a79 79 0 0122 3v-7c0-8-2-13-5-16s-8-5-16-5l-11 1a80 80 0 00-14 5h-2c-1 0-2-1-2-3v-5l1-3c1 0 1-2 3-2l12-5 16-2c12 0 20 3 26 8 5 6 8 14 8 25v32zM46 82l10-2 10-7 3-6 1-9v-4l-9-2H51c-6 0-11 1-14 4s-5 6-5 11 1 8 3 11c3 2 6 4 11 4zm80 10l-4-1-2-3-23-78-1-4 2-2h10l4 1 2 4 17 66 15-66 2-4 4-1h8l4 1 2 4 16 67 17-67 2-4 4-1h9c2 0 3 1 3 2v2l-1 2-24 78-2 4-4 1h-9l-4-1-1-4-16-65-15 64-2 4-4 1zm129 3a66 66 0 01-27-6l-3-2-1-3v-5c0-2 1-3 2-3h2l3 1a54 54 0 0023 5c6 0 11-2 14-4s5-5 5-9l-2-7c-1-2-6-4-10-5l-15-5c-7-2-13-6-16-10a24 24 0 015-34l10-5a52 52 0 0132 1l4 2 3 3 1 3v5c0 2-1 3-2 3l-4-1c-6-3-12-4-19-4l-14 2c-3 1-4 5-4 9 0 3 1 6 3 7l11 6 14 4c7 3 12 6 15 10s5 9 5 14l-3 12-7 8c-3 3-7 5-11 6l-14 2z" fill="#252f3e"/><g clip-rule="evenodd" fill="#f90" fill-rule="evenodd"><path d="M274 144A220 220 0 014 124c-4-3-1-6 2-4a300 300 0 00263 16c5-2 10 4 5 8z"/><path d="M287 128c-4-5-28-3-38-1-4 0-4-3-1-5 19-13 50-9 53-5 4 5-1 36-18 51-3 2-6 1-5-2 4-10 13-33 9-38z"/></g></svg>