<svg width="2500" height="728" viewBox="0 0 512 149" xmlns="http://www.w3.org/2000/svg"><path d="M3 116V59h71v-4H3V3h76V0H0v119h80v-3H3zm141-83l-30 39-29-39h-4l31 42-34 44h4l32-42 33 42h4l-35-44 32-42h-4zm17 115V95c2 8 6 14 12 19 6 4 13 7 22 7a33 33 0 0028-14l7-14a60 60 0 00-1-35c-1-5-4-10-7-14a33 33 0 00-27-13l-12 2c-3 2-7 3-10 6a37 37 0 00-7 8l-5 10V33h-4v115h4zm34-30c-10 0-18-4-25-11-6-7-9-18-9-31l2-16 7-13c3-4 6-7 11-9 4-2 9-3 14-3 6 0 11 1 15 3s8 5 10 9l7 13a58 58 0 01-6 44l-10 10c-5 2-10 4-16 4zm55 1V70l2-13 6-12 11-8c4-2 9-3 15-2v-4l-13 2-10 5-7 7a33 33 0 00-3 9h-1V33h-3v86h3zm38-42h72c0-6 0-12-2-17-1-6-3-10-6-15a34 34 0 00-29-14 34 34 0 00-26 12c-4 4-7 9-9 14a70 70 0 00-1 37l7 14 11 10c5 2 11 3 18 3 9 0 18-3 24-8 7-6 11-14 12-24h-3c-2 10-5 17-11 22-6 4-14 7-23 7-6 0-11-1-15-4l-11-8-6-13-2-16zm69-4h-69l4-16c2-4 4-9 7-12a31 31 0 0124-10l15 3 10 8 7 13 2 14zm72-14h4c0-10-3-17-9-21-5-5-13-7-22-7l-14 2-9 5-5 7-1 8c0 4 0 8 2 11s4 5 8 6a286 286 0 0030 8l9 5 7 5 3 9c0 4-1 7-3 10a21 21 0 01-7 6c-2 2-5 3-9 4l-9 1c-10 0-18-3-23-7-6-5-8-12-8-21h-4c0 10 3 18 9 23s14 8 26 8l11-1 10-5a23 23 0 007-7c2-3 3-7 3-11s-1-7-3-10c-1-2-3-5-6-6-2-2-5-3-9-4a516 516 0 00-10-3 1727 1727 0 00-12-3l-10-3-7-5-2-10 1-4 3-6 7-6c4-2 9-2 15-2l11 1 9 4 5 8c2 3 2 6 2 11zm77 0h4c0-10-3-17-9-21-5-5-13-7-22-7l-14 2-9 5-5 7-1 8 2 11c2 3 4 5 8 6a286 286 0 0030 8l9 5 7 5 3 9c0 4-1 7-3 10a21 21 0 01-6 6l-9 4-10 1c-10 0-18-3-23-7-6-5-8-12-8-21h-4c0 10 3 18 9 23s15 8 26 8l11-1 10-5a23 23 0 007-7c2-3 3-7 3-11l-2-10c-2-2-4-5-7-6-2-2-5-3-9-4a516 516 0 00-9-3 1727 1727 0 00-13-3l-9-3c-3-1-6-3-7-5-2-3-3-6-3-10l1-4 3-6 8-6c3-2 8-2 14-2l11 1 9 4 5 8c2 3 2 6 2 11z" fill="#222"/></svg>