<svg viewBox="0 0 398.3 439.9" xmlns="http://www.w3.org/2000/svg"><path d="M335 218c-1 0-18-3-41-4h-57c-13 1-32-6-34 2A170 170 0 0197 332a52 52 0 01-26-67c8-20 18-41 0-46-13-4-21 9-26 22-9 26-28 53-33 85-6 33 0 69 29 89 67 47 141-29 218-48 28-7 59-6 84-20 18-11 30-29 34-49 5-32-11-64-42-80z" fill="#99425b" stroke="#fff" stroke-width="20"/><path d="M203 216A170 170 0 0197 332a52 52 0 01-26-67c8-20 18-41 0-46-13-4-21 9-26 22-9 26-28 53-33 85-6 33 0 69 29 89 67 47 141-29 218-48 28-7 59-6 84-20 18-11 30-29 34-49 5-32-11-64-42-80" fill="none" stroke="#fff" stroke-width="20"/><path d="M265 91l54 111 65-192H145l65 192z" fill="#99425b"/><path d="M265 91l54 111 65-192H145l65 192z" fill="none" stroke="#fff" stroke-width="20"/><circle cx="199" cy="216.6" fill="#99425b" r="40.9"/><g stroke="#fff" stroke-width="20"><circle cx="199" cy="216.6" fill="none" r="40.9"/><circle cx="332.4" cy="216.6" fill="#99425b" r="40.9"/><circle cx="332.4" cy="216.6" fill="none" r="40.9"/></g><circle cx="65.1" cy="216.9" fill="#99425b" r="40.9"/><circle cx="65.1" cy="216.9" fill="none" r="40.9" stroke="#fff" stroke-width="20"/></svg>